<svg width="251" height="251" xmlns="http://www.w3.org/2000/svg" xmlns:xlink="http://www.w3.org/1999/xlink" overflow="hidden"><defs><clipPath id="clip0"><rect x="0" y="0" width="251" height="251"/></clipPath></defs><g clip-path="url(#clip0)"><path d="M15.6875 39.2188C15.6875 26.2228 26.2228 15.6875 39.2188 15.6875L86.2812 15.6875C99.2772 15.6875 109.812 26.2228 109.812 39.2188L109.812 86.2812C109.812 99.2772 99.2772 109.812 86.2812 109.812L39.2188 109.812C26.2228 109.812 15.6875 99.2772 15.6875 86.2812L15.6875 39.2188ZM39.2188 31.375C34.8868 31.375 31.375 34.8868 31.375 39.2188L31.375 86.2812C31.375 90.6132 34.8868 94.125 39.2188 94.125L86.2812 94.125C90.6132 94.125 94.125 90.6132 94.125 86.2812L94.125 39.2188C94.125 34.8868 90.6132 31.375 86.2812 31.375L39.2188 31.375ZM141.188 39.2188C141.188 26.2228 151.723 15.6875 164.719 15.6875L211.781 15.6875C224.777 15.6875 235.312 26.2228 235.312 39.2188L235.312 86.2812C235.312 99.2772 224.777 109.812 211.781 109.812L164.719 109.812C151.723 109.812 141.188 99.2772 141.188 86.2812L141.188 39.2188ZM164.719 31.375C160.387 31.375 156.875 34.8868 156.875 39.2188L156.875 86.2812C156.875 90.6132 160.387 94.125 164.719 94.125L211.781 94.125C216.113 94.125 219.625 90.6132 219.625 86.2812L219.625 39.2188C219.625 34.8868 216.113 31.375 211.781 31.375L164.719 31.375ZM15.6875 164.719C15.6875 151.723 26.2228 141.188 39.2188 141.188L86.2812 141.188C99.2772 141.188 109.812 151.723 109.812 164.719L109.812 211.781C109.812 224.777 99.2772 235.312 86.2812 235.312L39.2188 235.312C26.2228 235.312 15.6875 224.777 15.6875 211.781L15.6875 164.719ZM39.2188 156.875C34.8868 156.875 31.375 160.387 31.375 164.719L31.375 211.781C31.375 216.113 34.8868 219.625 39.2188 219.625L86.2812 219.625C90.6132 219.625 94.125 216.113 94.125 211.781L94.125 164.719C94.125 160.387 90.6132 156.875 86.2812 156.875L39.2188 156.875ZM141.188 164.719C141.188 151.723 151.723 141.188 164.719 141.188L211.781 141.188C224.777 141.188 235.312 151.723 235.312 164.719L235.312 211.781C235.312 224.777 224.777 235.312 211.781 235.312L164.719 235.312C151.723 235.312 141.188 224.777 141.188 211.781L141.188 164.719ZM164.719 156.875C160.387 156.875 156.875 160.387 156.875 164.719L156.875 211.781C156.875 216.113 160.387 219.625 164.719 219.625L211.781 219.625C216.113 219.625 219.625 216.113 219.625 211.781L219.625 164.719C219.625 160.387 216.113 156.875 211.781 156.875L164.719 156.875Z" fill="#5B9BD5"/></g></svg>