<svg width="275" height="275" xmlns="http://www.w3.org/2000/svg" xmlns:xlink="http://www.w3.org/1999/xlink" overflow="hidden"><defs><clipPath id="clip0"><rect x="0" y="0" width="275" height="275"/></clipPath></defs><g clip-path="url(#clip0)"><path d="M51.5625 77.3438 223.438 77.3438C242.422 77.3438 257.812 92.734 257.812 111.719L257.812 163.281C257.812 182.266 242.422 197.656 223.438 197.656L51.5625 197.656C32.5777 197.656 17.1875 182.266 17.1875 163.281L17.1875 111.719C17.1875 92.734 32.5777 77.3438 51.5625 77.3438ZM51.5625 94.5312C42.0701 94.5312 34.375 102.226 34.375 111.719L34.375 163.281C34.375 172.774 42.0701 180.469 51.5625 180.469L223.438 180.469C232.93 180.469 240.625 172.774 240.625 163.281L240.625 111.719C240.625 102.226 232.93 94.5312 223.438 94.5312L51.5625 94.5312ZM17.1875 34.375C17.1875 29.6288 21.0351 25.7812 25.7812 25.7812L249.219 25.7812C253.965 25.7812 257.812 29.6288 257.812 34.375 257.812 39.1212 253.965 42.9688 249.219 42.9688L25.7812 42.9688C21.0351 42.9688 17.1875 39.1212 17.1875 34.375ZM17.1875 240.625C17.1875 235.879 21.0351 232.031 25.7812 232.031L249.219 232.031C253.965 232.031 257.812 235.879 257.812 240.625 257.812 245.371 253.965 249.219 249.219 249.219L25.7812 249.219C21.0351 249.219 17.1875 245.371 17.1875 240.625Z" fill="#5B9BD5"/></g></svg>