<svg width="16" height="25" xmlns="http://www.w3.org/2000/svg" xmlns:xlink="http://www.w3.org/1999/xlink" overflow="hidden"><defs><clipPath id="clip0"><rect x="402" y="242" width="16" height="25"/></clipPath></defs><g clip-path="url(#clip0)" transform="translate(-402 -242)"><path d="M16.725 4.88495C14.3037 4.88223 12.0401 6.08598 10.6886 8.09506 9.32997 10.0997 9.04302 12.6439 9.92098 14.9008L13.2358 22.2304 16.097 28.2319C16.2753 28.5787 16.7011 28.7153 17.048 28.537 17.179 28.4696 17.2857 28.3629 17.3531 28.2319L20.2143 22.2304 23.5291 14.9008C24.4066 12.6444 24.1196 10.101 22.7614 8.0968 21.4103 6.08707 19.1467 4.88265 16.725 4.88495ZM22.8849 14.6332 19.5845 21.931 16.7296 27.9206 16.7201 27.9206 13.8712 21.9439 10.5647 14.6332C9.77684 12.5926 10.0394 10.2953 11.2675 8.48516 13.2997 5.47107 17.3906 4.67518 20.4047 6.70742 21.1076 7.1814 21.7124 7.78668 22.1857 8.49004 23.4113 10.2995 23.6726 12.5946 22.8849 14.6332Z" stroke="#00B0F0" stroke-width="1.04677" fill="none" transform="matrix(1.00933 0 0 1 393.119 237.729)"/><path d="M16.725 9.07205C14.9907 9.07205 13.5847 10.478 13.5847 12.2124 13.5847 13.9467 14.9907 15.3527 16.725 15.3527 18.4594 15.3527 19.8653 13.9467 19.8653 12.2124 19.8723 10.485 18.4776 9.07899 16.7502 9.07205 16.7418 9.07201 16.7334 9.07201 16.725 9.07205ZM16.725 14.6566C15.3761 14.6566 14.2825 13.5631 14.2825 12.2141 14.2825 10.8652 15.3761 9.77164 16.725 9.77164 18.074 9.77164 19.1675 10.8652 19.1675 12.2141 19.1822 13.5489 18.1121 14.6429 16.7773 14.6576 16.7599 14.6578 16.7424 14.6578 16.725 14.6576Z" stroke="#00B0F0" stroke-width="1.04677" fill="none" transform="matrix(1.00933 0 0 1 393.119 237.729)"/></g></svg>