<svg width="340" height="340" xmlns="http://www.w3.org/2000/svg" xmlns:xlink="http://www.w3.org/1999/xlink" overflow="hidden"><defs><clipPath id="clip0"><rect x="0" y="0" width="340" height="340"/></clipPath></defs><g clip-path="url(#clip0)"><path d="M162.477 24.3525C166.622 20.1979 173.349 20.1894 177.504 24.3335 177.51 24.3398 177.516 24.3462 177.523 24.3525L209.398 56.2275C213.552 60.3821 213.552 67.1179 209.398 71.2725 205.243 75.4271 198.507 75.4271 194.352 71.2725L180.625 57.5238 180.625 95.625C180.625 101.493 175.868 106.25 170 106.25 164.132 106.25 159.375 101.493 159.375 95.625L159.375 57.5238 145.648 71.2725C141.493 75.4271 134.757 75.4271 130.602 71.2725 126.448 67.1179 126.448 60.3821 130.602 56.2275L162.477 24.3525ZM49.7887 92.2887C53.9378 88.1409 60.6634 88.1409 64.8125 92.2887L94.86 122.336C98.9366 126.557 98.8197 133.283 94.5989 137.36 90.4815 141.337 83.9537 141.337 79.8363 137.36L49.7887 107.313C45.6409 103.163 45.6409 96.4378 49.7887 92.2888ZM290.211 92.2887C294.359 96.4378 294.359 103.163 290.211 107.312L260.164 137.36C256.087 141.581 249.361 141.698 245.14 137.621 240.919 133.545 240.802 126.818 244.879 122.597 244.964 122.509 245.051 122.422 245.14 122.336L275.188 92.2887C279.337 88.1409 286.062 88.1409 290.211 92.2887ZM248.816 244.375C266.394 200.846 245.357 151.309 201.828 133.731 158.299 116.153 108.762 137.191 91.1837 180.72 82.9388 201.137 82.9388 223.958 91.1837 244.375L10.625 244.375C4.75697 244.375-2.35922e-15 249.132 0 255 0 260.868 4.75697 265.625 10.625 265.625L329.375 265.625C335.243 265.625 340 260.868 340 255 340 249.132 335.243 244.375 329.375 244.375L248.837 244.375ZM0 212.5C-2.35922e-15 206.632 4.75697 201.875 10.625 201.875L53.125 201.875C58.993 201.875 63.75 206.632 63.75 212.5 63.75 218.368 58.993 223.125 53.125 223.125L10.625 223.125C4.75697 223.125-1.17961e-15 218.368-1.17961e-15 212.5ZM276.25 212.5C276.25 206.632 281.007 201.875 286.875 201.875L329.375 201.875C335.243 201.875 340 206.632 340 212.5 340 218.368 335.243 223.125 329.375 223.125L286.875 223.125C281.007 223.125 276.25 218.368 276.25 212.5Z" fill="#FFFFFF"/></g></svg>